<svg xmlns="http://www.w3.org/2000/svg" width="260" height="260" viewBox="0 0 260 260">
<g fill="none" stroke="#cdeeb0" stroke-width="1.4" stroke-linecap="square" stroke-linejoin="round">
<path d="M10 40 H80 V10"/>
<path d="M80 40 H150 V90 H210"/>
<path d="M10 120 H60 V170 H120"/>
<path d="M150 130 H250"/>
<path d="M120 210 V150 H190 V250"/>
<path d="M210 90 V160 H250"/>
<path d="M40 250 V200 H95"/>
<path d="M250 200 H190 V210"/>
</g>
<circle cx="80" cy="10" r="3" fill="#cdeeb0"/>
<circle cx="210" cy="90" r="3" fill="#cdeeb0"/>
<circle cx="60" cy="170" r="3" fill="#cdeeb0"/>
<circle cx="150" cy="130" r="3" fill="#cdeeb0"/>
<circle cx="120" cy="150" r="3" fill="#cdeeb0"/>
<circle cx="190" cy="150" r="3" fill="#cdeeb0"/>
<circle cx="250" cy="200" r="3" fill="#cdeeb0"/>
<circle cx="95" cy="200" r="3" fill="#cdeeb0"/>
<circle cx="120" cy="210" r="3" fill="#cdeeb0"/>
<circle cx="40" cy="200" r="3" fill="#cdeeb0"/>
<circle cx="10" cy="120" r="3" fill="#cdeeb0"/>
<circle cx="80" cy="40" r="4.5" fill="none" stroke="#cdeeb0" stroke-width="1.4"/>
<circle cx="150" cy="90" r="4.5" fill="none" stroke="#cdeeb0" stroke-width="1.4"/>
<circle cx="210" cy="160" r="4.5" fill="none" stroke="#cdeeb0" stroke-width="1.4"/>
<circle cx="120" cy="150" r="4.5" fill="none" stroke="#cdeeb0" stroke-width="1.4"/>
<circle cx="190" cy="250" r="4.5" fill="none" stroke="#cdeeb0" stroke-width="1.4"/>
</svg>