<svg xmlns="http://www.w3.org/2000/svg" width="320" height="320" viewBox="0 0 320 320">
<g stroke="#5aa6ff" stroke-width="1" opacity="0.9">
<line x1="40" y1="60" x2="150" y2="30"/>
<line x1="40" y1="60" x2="90" y2="160"/>
<line x1="150" y1="30" x2="280" y2="80"/>
<line x1="150" y1="30" x2="90" y2="160"/>
<line x1="150" y1="30" x2="210" y2="150"/>
<line x1="280" y1="80" x2="210" y2="150"/>
<line x1="280" y1="80" x2="300" y2="210"/>
<line x1="90" y1="160" x2="210" y2="150"/>
<line x1="90" y1="160" x2="50" y2="260"/>
<line x1="90" y1="160" x2="160" y2="290"/>
<line x1="90" y1="160" x2="130" y2="200"/>
<line x1="210" y1="150" x2="300" y2="210"/>
<line x1="210" y1="150" x2="160" y2="290"/>
<line x1="210" y1="150" x2="130" y2="200"/>
<line x1="300" y1="210" x2="270" y2="300"/>
<line x1="50" y1="260" x2="160" y2="290"/>
<line x1="50" y1="260" x2="130" y2="200"/>
<line x1="160" y1="290" x2="270" y2="300"/>
<line x1="160" y1="290" x2="130" y2="200"/>
</g>
<circle cx="40" cy="60" r="3.2" fill="#5aa6ff"/>
<circle cx="40" cy="60" r="7" fill="none" stroke="#5aa6ff" stroke-width="0.8" opacity="0.5"/>
<circle cx="150" cy="30" r="3.2" fill="#5aa6ff"/>
<circle cx="150" cy="30" r="7" fill="none" stroke="#5aa6ff" stroke-width="0.8" opacity="0.5"/>
<circle cx="280" cy="80" r="3.2" fill="#5aa6ff"/>
<circle cx="280" cy="80" r="7" fill="none" stroke="#5aa6ff" stroke-width="0.8" opacity="0.5"/>
<circle cx="90" cy="160" r="3.2" fill="#5aa6ff"/>
<circle cx="90" cy="160" r="7" fill="none" stroke="#5aa6ff" stroke-width="0.8" opacity="0.5"/>
<circle cx="210" cy="150" r="3.2" fill="#5aa6ff"/>
<circle cx="210" cy="150" r="7" fill="none" stroke="#5aa6ff" stroke-width="0.8" opacity="0.5"/>
<circle cx="300" cy="210" r="3.2" fill="#5aa6ff"/>
<circle cx="300" cy="210" r="7" fill="none" stroke="#5aa6ff" stroke-width="0.8" opacity="0.5"/>
<circle cx="50" cy="260" r="3.2" fill="#5aa6ff"/>
<circle cx="50" cy="260" r="7" fill="none" stroke="#5aa6ff" stroke-width="0.8" opacity="0.5"/>
<circle cx="160" cy="290" r="3.2" fill="#5aa6ff"/>
<circle cx="160" cy="290" r="7" fill="none" stroke="#5aa6ff" stroke-width="0.8" opacity="0.5"/>
<circle cx="270" cy="300" r="3.2" fill="#5aa6ff"/>
<circle cx="270" cy="300" r="7" fill="none" stroke="#5aa6ff" stroke-width="0.8" opacity="0.5"/>
<circle cx="130" cy="200" r="3.2" fill="#5aa6ff"/>
<circle cx="130" cy="200" r="7" fill="none" stroke="#5aa6ff" stroke-width="0.8" opacity="0.5"/>
</svg>