<svg xmlns="http://www.w3.org/2000/svg" width="900" height="900" viewBox="0 0 900 900">
<circle cx="316" cy="56" r="2.1" fill="#5aa6ff"/>
<circle cx="342" cy="56" r="2.1" fill="#5aa6ff"/>
<circle cx="368" cy="56" r="2.1" fill="#5aa6ff"/>
<circle cx="394" cy="56" r="2.1" fill="#5aa6ff"/>
<circle cx="420" cy="56" r="2.1" fill="#5aa6ff"/>
<circle cx="446" cy="56" r="2.1" fill="#5aa6ff"/>
<circle cx="472" cy="56" r="2.1" fill="#5aa6ff"/>
<circle cx="498" cy="56" r="2.1" fill="#5aa6ff"/>
<circle cx="524" cy="56" r="2.1" fill="#5aa6ff"/>
<circle cx="550" cy="56" r="2.1" fill="#5aa6ff"/>
<circle cx="576" cy="56" r="2.1" fill="#5aa6ff"/>
<circle cx="264" cy="82" r="2.1" fill="#5aa6ff"/>
<circle cx="290" cy="82" r="2.1" fill="#5aa6ff"/>
<circle cx="316" cy="82" r="2.1" fill="#5aa6ff"/>
<circle cx="342" cy="82" r="2.1" fill="#5aa6ff"/>
<circle cx="368" cy="82" r="2.1" fill="#5aa6ff"/>
<circle cx="394" cy="82" r="2.1" fill="#5aa6ff"/>
<circle cx="420" cy="82" r="2.1" fill="#5aa6ff"/>
<circle cx="446" cy="82" r="2.1" fill="#5aa6ff"/>
<circle cx="472" cy="82" r="2.1" fill="#5aa6ff"/>
<circle cx="498" cy="82" r="2.1" fill="#5aa6ff"/>
<circle cx="524" cy="82" r="2.1" fill="#5aa6ff"/>
<circle cx="550" cy="82" r="2.1" fill="#5aa6ff"/>
<circle cx="576" cy="82" r="2.1" fill="#5aa6ff"/>
<circle cx="602" cy="82" r="2.1" fill="#5aa6ff"/>
<circle cx="628" cy="82" r="2.1" fill="#5aa6ff"/>
<circle cx="212" cy="108" r="2.1" fill="#5aa6ff"/>
<circle cx="238" cy="108" r="2.1" fill="#5aa6ff"/>
<circle cx="264" cy="108" r="2.1" fill="#5aa6ff"/>
<circle cx="290" cy="108" r="2.1" fill="#5aa6ff"/>
<circle cx="316" cy="108" r="2.1" fill="#5aa6ff"/>
<circle cx="342" cy="108" r="2.1" fill="#5aa6ff"/>
<circle cx="368" cy="108" r="2.1" fill="#5aa6ff"/>
<circle cx="394" cy="108" r="2.1" fill="#5aa6ff"/>
<circle cx="420" cy="108" r="2.1" fill="#5aa6ff"/>
<circle cx="446" cy="108" r="2.1" fill="#5aa6ff"/>
<circle cx="472" cy="108" r="2.1" fill="#5aa6ff"/>
<circle cx="498" cy="108" r="2.1" fill="#5aa6ff"/>
<circle cx="524" cy="108" r="2.1" fill="#5aa6ff"/>
<circle cx="550" cy="108" r="2.1" fill="#5aa6ff"/>
<circle cx="576" cy="108" r="2.1" fill="#5aa6ff"/>
<circle cx="602" cy="108" r="2.1" fill="#5aa6ff"/>
<circle cx="628" cy="108" r="2.1" fill="#5aa6ff"/>
<circle cx="654" cy="108" r="2.1" fill="#5aa6ff"/>
<circle cx="680" cy="108" r="2.1" fill="#5aa6ff"/>
<circle cx="186" cy="134" r="2.1" fill="#5aa6ff"/>
<circle cx="212" cy="134" r="2.1" fill="#5aa6ff"/>
<circle cx="238" cy="134" r="2.1" fill="#5aa6ff"/>
<circle cx="264" cy="134" r="2.1" fill="#5aa6ff"/>
<circle cx="290" cy="134" r="2.1" fill="#5aa6ff"/>
<circle cx="316" cy="134" r="2.1" fill="#5aa6ff"/>
<circle cx="342" cy="134" r="2.1" fill="#5aa6ff"/>
<circle cx="368" cy="134" r="2.1" fill="#5aa6ff"/>
<circle cx="394" cy="134" r="2.1" fill="#5aa6ff"/>
<circle cx="420" cy="134" r="2.1" fill="#5aa6ff"/>
<circle cx="446" cy="134" r="2.1" fill="#5aa6ff"/>
<circle cx="472" cy="134" r="2.1" fill="#5aa6ff"/>
<circle cx="498" cy="134" r="2.1" fill="#5aa6ff"/>
<circle cx="524" cy="134" r="2.1" fill="#5aa6ff"/>
<circle cx="550" cy="134" r="2.1" fill="#5aa6ff"/>
<circle cx="576" cy="134" r="2.1" fill="#5aa6ff"/>
<circle cx="602" cy="134" r="2.1" fill="#5aa6ff"/>
<circle cx="628" cy="134" r="2.1" fill="#5aa6ff"/>
<circle cx="654" cy="134" r="2.1" fill="#5aa6ff"/>
<circle cx="680" cy="134" r="2.1" fill="#5aa6ff"/>
<circle cx="706" cy="134" r="2.1" fill="#5aa6ff"/>
<circle cx="160" cy="160" r="2.1" fill="#5aa6ff"/>
<circle cx="186" cy="160" r="2.1" fill="#5aa6ff"/>
<circle cx="212" cy="160" r="2.1" fill="#5aa6ff"/>
<circle cx="238" cy="160" r="2.1" fill="#5aa6ff"/>
<circle cx="264" cy="160" r="2.1" fill="#5aa6ff"/>
<circle cx="290" cy="160" r="2.1" fill="#5aa6ff"/>
<circle cx="316" cy="160" r="2.1" fill="#5aa6ff"/>
<circle cx="342" cy="160" r="2.1" fill="#5aa6ff"/>
<circle cx="368" cy="160" r="2.1" fill="#5aa6ff"/>
<circle cx="394" cy="160" r="2.1" fill="#5aa6ff"/>
<circle cx="420" cy="160" r="2.1" fill="#5aa6ff"/>
<circle cx="446" cy="160" r="2.1" fill="#5aa6ff"/>
<circle cx="472" cy="160" r="2.1" fill="#5aa6ff"/>
<circle cx="498" cy="160" r="2.1" fill="#5aa6ff"/>
<circle cx="524" cy="160" r="2.1" fill="#5aa6ff"/>
<circle cx="550" cy="160" r="2.1" fill="#5aa6ff"/>
<circle cx="576" cy="160" r="2.1" fill="#5aa6ff"/>
<circle cx="602" cy="160" r="2.1" fill="#5aa6ff"/>
<circle cx="628" cy="160" r="2.1" fill="#5aa6ff"/>
<circle cx="654" cy="160" r="2.1" fill="#5aa6ff"/>
<circle cx="680" cy="160" r="2.1" fill="#5aa6ff"/>
<circle cx="706" cy="160" r="2.1" fill="#5aa6ff"/>
<circle cx="732" cy="160" r="2.1" fill="#5aa6ff"/>
<circle cx="134" cy="186" r="2.1" fill="#5aa6ff"/>
<circle cx="160" cy="186" r="2.1" fill="#5aa6ff"/>
<circle cx="186" cy="186" r="2.1" fill="#5aa6ff"/>
<circle cx="212" cy="186" r="2.1" fill="#5aa6ff"/>
<circle cx="238" cy="186" r="2.1" fill="#5aa6ff"/>
<circle cx="264" cy="186" r="2.1" fill="#5aa6ff"/>
<circle cx="290" cy="186" r="2.1" fill="#5aa6ff"/>
<circle cx="316" cy="186" r="2.1" fill="#5aa6ff"/>
<circle cx="342" cy="186" r="2.1" fill="#5aa6ff"/>
<circle cx="368" cy="186" r="2.1" fill="#5aa6ff"/>
<circle cx="394" cy="186" r="2.1" fill="#5aa6ff"/>
<circle cx="420" cy="186" r="2.1" fill="#5aa6ff"/>
<circle cx="446" cy="186" r="2.1" fill="#5aa6ff"/>
<circle cx="472" cy="186" r="2.1" fill="#5aa6ff"/>
<circle cx="498" cy="186" r="2.1" fill="#5aa6ff"/>
<circle cx="524" cy="186" r="2.1" fill="#5aa6ff"/>
<circle cx="550" cy="186" r="2.1" fill="#5aa6ff"/>
<circle cx="576" cy="186" r="2.1" fill="#5aa6ff"/>
<circle cx="602" cy="186" r="2.1" fill="#5aa6ff"/>
<circle cx="628" cy="186" r="2.1" fill="#5aa6ff"/>
<circle cx="654" cy="186" r="2.1" fill="#5aa6ff"/>
<circle cx="680" cy="186" r="2.1" fill="#5aa6ff"/>
<circle cx="706" cy="186" r="2.1" fill="#5aa6ff"/>
<circle cx="732" cy="186" r="2.1" fill="#5aa6ff"/>
<circle cx="758" cy="186" r="2.1" fill="#5aa6ff"/>
<circle cx="108" cy="212" r="2.1" fill="#5aa6ff"/>
<circle cx="134" cy="212" r="2.1" fill="#5aa6ff"/>
<circle cx="160" cy="212" r="2.1" fill="#5aa6ff"/>
<circle cx="186" cy="212" r="2.1" fill="#5aa6ff"/>
<circle cx="212" cy="212" r="2.1" fill="#5aa6ff"/>
<circle cx="238" cy="212" r="2.1" fill="#5aa6ff"/>
<circle cx="264" cy="212" r="2.1" fill="#5aa6ff"/>
<circle cx="290" cy="212" r="2.1" fill="#5aa6ff"/>
<circle cx="316" cy="212" r="2.1" fill="#5aa6ff"/>
<circle cx="342" cy="212" r="2.1" fill="#5aa6ff"/>
<circle cx="368" cy="212" r="2.1" fill="#5aa6ff"/>
<circle cx="394" cy="212" r="2.1" fill="#5aa6ff"/>
<circle cx="420" cy="212" r="2.1" fill="#5aa6ff"/>
<circle cx="446" cy="212" r="2.1" fill="#5aa6ff"/>
<circle cx="472" cy="212" r="2.1" fill="#5aa6ff"/>
<circle cx="498" cy="212" r="2.1" fill="#5aa6ff"/>
<circle cx="524" cy="212" r="2.1" fill="#5aa6ff"/>
<circle cx="550" cy="212" r="2.1" fill="#5aa6ff"/>
<circle cx="576" cy="212" r="2.1" fill="#5aa6ff"/>
<circle cx="602" cy="212" r="2.1" fill="#5aa6ff"/>
<circle cx="628" cy="212" r="2.1" fill="#5aa6ff"/>
<circle cx="654" cy="212" r="2.1" fill="#5aa6ff"/>
<circle cx="680" cy="212" r="2.1" fill="#5aa6ff"/>
<circle cx="706" cy="212" r="2.1" fill="#5aa6ff"/>
<circle cx="732" cy="212" r="2.1" fill="#5aa6ff"/>
<circle cx="758" cy="212" r="2.1" fill="#5aa6ff"/>
<circle cx="784" cy="212" r="2.1" fill="#5aa6ff"/>
<circle cx="108" cy="238" r="2.1" fill="#5aa6ff"/>
<circle cx="134" cy="238" r="2.1" fill="#5aa6ff"/>
<circle cx="160" cy="238" r="2.1" fill="#5aa6ff"/>
<circle cx="186" cy="238" r="2.1" fill="#5aa6ff"/>
<circle cx="212" cy="238" r="2.1" fill="#5aa6ff"/>
<circle cx="238" cy="238" r="2.1" fill="#5aa6ff"/>
<circle cx="264" cy="238" r="2.1" fill="#5aa6ff"/>
<circle cx="290" cy="238" r="2.1" fill="#5aa6ff"/>
<circle cx="316" cy="238" r="2.1" fill="#5aa6ff"/>
<circle cx="342" cy="238" r="2.1" fill="#5aa6ff"/>
<circle cx="368" cy="238" r="2.1" fill="#5aa6ff"/>
<circle cx="394" cy="238" r="2.1" fill="#5aa6ff"/>
<circle cx="420" cy="238" r="2.1" fill="#5aa6ff"/>
<circle cx="446" cy="238" r="2.1" fill="#5aa6ff"/>
<circle cx="472" cy="238" r="2.1" fill="#5aa6ff"/>
<circle cx="498" cy="238" r="2.1" fill="#5aa6ff"/>
<circle cx="524" cy="238" r="2.1" fill="#5aa6ff"/>
<circle cx="550" cy="238" r="2.1" fill="#5aa6ff"/>
<circle cx="576" cy="238" r="2.1" fill="#5aa6ff"/>
<circle cx="602" cy="238" r="2.1" fill="#5aa6ff"/>
<circle cx="628" cy="238" r="2.1" fill="#5aa6ff"/>
<circle cx="654" cy="238" r="2.1" fill="#5aa6ff"/>
<circle cx="680" cy="238" r="2.1" fill="#5aa6ff"/>
<circle cx="706" cy="238" r="2.1" fill="#5aa6ff"/>
<circle cx="732" cy="238" r="2.1" fill="#5aa6ff"/>
<circle cx="758" cy="238" r="2.1" fill="#5aa6ff"/>
<circle cx="784" cy="238" r="2.1" fill="#5aa6ff"/>
<circle cx="810" cy="238" r="2.1" fill="#5aa6ff"/>
<circle cx="82" cy="264" r="2.1" fill="#5aa6ff"/>
<circle cx="108" cy="264" r="2.1" fill="#5aa6ff"/>
<circle cx="134" cy="264" r="2.1" fill="#5aa6ff"/>
<circle cx="160" cy="264" r="2.1" fill="#5aa6ff"/>
<circle cx="186" cy="264" r="2.1" fill="#5aa6ff"/>
<circle cx="212" cy="264" r="2.1" fill="#5aa6ff"/>
<circle cx="238" cy="264" r="2.1" fill="#5aa6ff"/>
<circle cx="264" cy="264" r="2.1" fill="#5aa6ff"/>
<circle cx="290" cy="264" r="2.1" fill="#5aa6ff"/>
<circle cx="316" cy="264" r="2.1" fill="#5aa6ff"/>
<circle cx="342" cy="264" r="2.1" fill="#5aa6ff"/>
<circle cx="368" cy="264" r="2.1" fill="#5aa6ff"/>
<circle cx="394" cy="264" r="2.1" fill="#5aa6ff"/>
<circle cx="420" cy="264" r="2.1" fill="#5aa6ff"/>
<circle cx="446" cy="264" r="2.1" fill="#5aa6ff"/>
<circle cx="472" cy="264" r="2.1" fill="#5aa6ff"/>
<circle cx="498" cy="264" r="2.1" fill="#5aa6ff"/>
<circle cx="524" cy="264" r="2.1" fill="#5aa6ff"/>
<circle cx="550" cy="264" r="2.1" fill="#5aa6ff"/>
<circle cx="576" cy="264" r="2.1" fill="#5aa6ff"/>
<circle cx="602" cy="264" r="2.1" fill="#5aa6ff"/>
<circle cx="628" cy="264" r="2.1" fill="#5aa6ff"/>
<circle cx="654" cy="264" r="2.1" fill="#5aa6ff"/>
<circle cx="680" cy="264" r="2.1" fill="#5aa6ff"/>
<circle cx="706" cy="264" r="2.1" fill="#5aa6ff"/>
<circle cx="732" cy="264" r="2.1" fill="#5aa6ff"/>
<circle cx="758" cy="264" r="2.1" fill="#5aa6ff"/>
<circle cx="784" cy="264" r="2.1" fill="#5aa6ff"/>
<circle cx="810" cy="264" r="2.1" fill="#5aa6ff"/>
<circle cx="82" cy="290" r="2.1" fill="#5aa6ff"/>
<circle cx="108" cy="290" r="2.1" fill="#5aa6ff"/>
<circle cx="134" cy="290" r="2.1" fill="#5aa6ff"/>
<circle cx="160" cy="290" r="2.1" fill="#5aa6ff"/>
<circle cx="186" cy="290" r="2.1" fill="#5aa6ff"/>
<circle cx="212" cy="290" r="2.1" fill="#5aa6ff"/>
<circle cx="238" cy="290" r="2.1" fill="#5aa6ff"/>
<circle cx="264" cy="290" r="2.1" fill="#5aa6ff"/>
<circle cx="290" cy="290" r="2.1" fill="#5aa6ff"/>
<circle cx="316" cy="290" r="2.1" fill="#5aa6ff"/>
<circle cx="342" cy="290" r="2.1" fill="#5aa6ff"/>
<circle cx="368" cy="290" r="2.1" fill="#5aa6ff"/>
<circle cx="394" cy="290" r="2.1" fill="#5aa6ff"/>
<circle cx="420" cy="290" r="2.1" fill="#5aa6ff"/>
<circle cx="446" cy="290" r="2.1" fill="#5aa6ff"/>
<circle cx="472" cy="290" r="2.1" fill="#5aa6ff"/>
<circle cx="498" cy="290" r="2.1" fill="#5aa6ff"/>
<circle cx="524" cy="290" r="2.1" fill="#5aa6ff"/>
<circle cx="550" cy="290" r="2.1" fill="#5aa6ff"/>
<circle cx="576" cy="290" r="2.1" fill="#5aa6ff"/>
<circle cx="602" cy="290" r="2.1" fill="#5aa6ff"/>
<circle cx="628" cy="290" r="2.1" fill="#5aa6ff"/>
<circle cx="654" cy="290" r="2.1" fill="#5aa6ff"/>
<circle cx="680" cy="290" r="2.1" fill="#5aa6ff"/>
<circle cx="706" cy="290" r="2.1" fill="#5aa6ff"/>
<circle cx="732" cy="290" r="2.1" fill="#5aa6ff"/>
<circle cx="758" cy="290" r="2.1" fill="#5aa6ff"/>
<circle cx="784" cy="290" r="2.1" fill="#5aa6ff"/>
<circle cx="810" cy="290" r="2.1" fill="#5aa6ff"/>
<circle cx="836" cy="290" r="2.1" fill="#5aa6ff"/>
<circle cx="56" cy="316" r="2.1" fill="#5aa6ff"/>
<circle cx="82" cy="316" r="2.1" fill="#5aa6ff"/>
<circle cx="108" cy="316" r="2.1" fill="#5aa6ff"/>
<circle cx="134" cy="316" r="2.1" fill="#5aa6ff"/>
<circle cx="160" cy="316" r="2.1" fill="#5aa6ff"/>
<circle cx="186" cy="316" r="2.1" fill="#5aa6ff"/>
<circle cx="212" cy="316" r="2.1" fill="#5aa6ff"/>
<circle cx="238" cy="316" r="2.1" fill="#5aa6ff"/>
<circle cx="264" cy="316" r="2.1" fill="#5aa6ff"/>
<circle cx="290" cy="316" r="2.1" fill="#5aa6ff"/>
<circle cx="316" cy="316" r="2.1" fill="#5aa6ff"/>
<circle cx="342" cy="316" r="2.1" fill="#5aa6ff"/>
<circle cx="368" cy="316" r="2.1" fill="#5aa6ff"/>
<circle cx="394" cy="316" r="2.1" fill="#5aa6ff"/>
<circle cx="420" cy="316" r="2.1" fill="#5aa6ff"/>
<circle cx="446" cy="316" r="2.1" fill="#5aa6ff"/>
<circle cx="472" cy="316" r="2.1" fill="#5aa6ff"/>
<circle cx="498" cy="316" r="2.1" fill="#5aa6ff"/>
<circle cx="524" cy="316" r="2.1" fill="#5aa6ff"/>
<circle cx="550" cy="316" r="2.1" fill="#5aa6ff"/>
<circle cx="576" cy="316" r="2.1" fill="#5aa6ff"/>
<circle cx="602" cy="316" r="2.1" fill="#5aa6ff"/>
<circle cx="628" cy="316" r="2.1" fill="#5aa6ff"/>
<circle cx="654" cy="316" r="2.1" fill="#5aa6ff"/>
<circle cx="680" cy="316" r="2.1" fill="#5aa6ff"/>
<circle cx="706" cy="316" r="2.1" fill="#5aa6ff"/>
<circle cx="732" cy="316" r="2.1" fill="#5aa6ff"/>
<circle cx="758" cy="316" r="2.1" fill="#5aa6ff"/>
<circle cx="784" cy="316" r="2.1" fill="#5aa6ff"/>
<circle cx="810" cy="316" r="2.1" fill="#5aa6ff"/>
<circle cx="836" cy="316" r="2.1" fill="#5aa6ff"/>
<circle cx="56" cy="342" r="2.1" fill="#5aa6ff"/>
<circle cx="82" cy="342" r="2.1" fill="#5aa6ff"/>
<circle cx="108" cy="342" r="2.1" fill="#5aa6ff"/>
<circle cx="134" cy="342" r="2.1" fill="#5aa6ff"/>
<circle cx="160" cy="342" r="2.1" fill="#5aa6ff"/>
<circle cx="186" cy="342" r="2.1" fill="#5aa6ff"/>
<circle cx="212" cy="342" r="2.1" fill="#5aa6ff"/>
<circle cx="238" cy="342" r="2.1" fill="#5aa6ff"/>
<circle cx="264" cy="342" r="2.1" fill="#5aa6ff"/>
<circle cx="290" cy="342" r="2.1" fill="#5aa6ff"/>
<circle cx="316" cy="342" r="2.1" fill="#5aa6ff"/>
<circle cx="342" cy="342" r="2.1" fill="#5aa6ff"/>
<circle cx="368" cy="342" r="2.1" fill="#5aa6ff"/>
<circle cx="394" cy="342" r="2.1" fill="#5aa6ff"/>
<circle cx="420" cy="342" r="2.1" fill="#5aa6ff"/>
<circle cx="446" cy="342" r="2.1" fill="#5aa6ff"/>
<circle cx="472" cy="342" r="2.1" fill="#5aa6ff"/>
<circle cx="498" cy="342" r="2.1" fill="#5aa6ff"/>
<circle cx="524" cy="342" r="2.1" fill="#5aa6ff"/>
<circle cx="550" cy="342" r="2.1" fill="#5aa6ff"/>
<circle cx="576" cy="342" r="2.1" fill="#5aa6ff"/>
<circle cx="602" cy="342" r="2.1" fill="#5aa6ff"/>
<circle cx="628" cy="342" r="2.1" fill="#5aa6ff"/>
<circle cx="654" cy="342" r="2.1" fill="#5aa6ff"/>
<circle cx="680" cy="342" r="2.1" fill="#5aa6ff"/>
<circle cx="706" cy="342" r="2.1" fill="#5aa6ff"/>
<circle cx="732" cy="342" r="2.1" fill="#5aa6ff"/>
<circle cx="758" cy="342" r="2.1" fill="#5aa6ff"/>
<circle cx="784" cy="342" r="2.1" fill="#5aa6ff"/>
<circle cx="810" cy="342" r="2.1" fill="#5aa6ff"/>
<circle cx="836" cy="342" r="2.1" fill="#5aa6ff"/>
<circle cx="56" cy="368" r="2.1" fill="#5aa6ff"/>
<circle cx="82" cy="368" r="2.1" fill="#5aa6ff"/>
<circle cx="108" cy="368" r="2.1" fill="#5aa6ff"/>
<circle cx="134" cy="368" r="2.1" fill="#5aa6ff"/>
<circle cx="160" cy="368" r="2.1" fill="#5aa6ff"/>
<circle cx="186" cy="368" r="2.1" fill="#5aa6ff"/>
<circle cx="212" cy="368" r="2.1" fill="#5aa6ff"/>
<circle cx="238" cy="368" r="2.1" fill="#5aa6ff"/>
<circle cx="264" cy="368" r="2.1" fill="#5aa6ff"/>
<circle cx="290" cy="368" r="2.1" fill="#5aa6ff"/>
<circle cx="316" cy="368" r="2.1" fill="#5aa6ff"/>
<circle cx="342" cy="368" r="2.1" fill="#5aa6ff"/>
<circle cx="368" cy="368" r="2.1" fill="#5aa6ff"/>
<circle cx="394" cy="368" r="2.1" fill="#5aa6ff"/>
<circle cx="420" cy="368" r="2.1" fill="#5aa6ff"/>
<circle cx="446" cy="368" r="2.1" fill="#5aa6ff"/>
<circle cx="472" cy="368" r="2.1" fill="#5aa6ff"/>
<circle cx="498" cy="368" r="2.1" fill="#5aa6ff"/>
<circle cx="524" cy="368" r="2.1" fill="#5aa6ff"/>
<circle cx="550" cy="368" r="2.1" fill="#5aa6ff"/>
<circle cx="576" cy="368" r="2.1" fill="#5aa6ff"/>
<circle cx="602" cy="368" r="2.1" fill="#5aa6ff"/>
<circle cx="628" cy="368" r="2.1" fill="#5aa6ff"/>
<circle cx="654" cy="368" r="2.1" fill="#5aa6ff"/>
<circle cx="680" cy="368" r="2.1" fill="#5aa6ff"/>
<circle cx="706" cy="368" r="2.1" fill="#5aa6ff"/>
<circle cx="732" cy="368" r="2.1" fill="#5aa6ff"/>
<circle cx="758" cy="368" r="2.1" fill="#5aa6ff"/>
<circle cx="784" cy="368" r="2.1" fill="#5aa6ff"/>
<circle cx="810" cy="368" r="2.1" fill="#5aa6ff"/>
<circle cx="836" cy="368" r="2.1" fill="#5aa6ff"/>
<circle cx="56" cy="394" r="2.1" fill="#5aa6ff"/>
<circle cx="82" cy="394" r="2.1" fill="#5aa6ff"/>
<circle cx="108" cy="394" r="2.1" fill="#5aa6ff"/>
<circle cx="134" cy="394" r="2.1" fill="#5aa6ff"/>
<circle cx="160" cy="394" r="2.1" fill="#5aa6ff"/>
<circle cx="186" cy="394" r="2.1" fill="#5aa6ff"/>
<circle cx="212" cy="394" r="2.1" fill="#5aa6ff"/>
<circle cx="238" cy="394" r="2.1" fill="#5aa6ff"/>
<circle cx="264" cy="394" r="2.1" fill="#5aa6ff"/>
<circle cx="290" cy="394" r="2.1" fill="#5aa6ff"/>
<circle cx="316" cy="394" r="2.1" fill="#5aa6ff"/>
<circle cx="342" cy="394" r="2.1" fill="#5aa6ff"/>
<circle cx="368" cy="394" r="2.1" fill="#5aa6ff"/>
<circle cx="394" cy="394" r="2.1" fill="#5aa6ff"/>
<circle cx="420" cy="394" r="2.1" fill="#5aa6ff"/>
<circle cx="446" cy="394" r="2.1" fill="#5aa6ff"/>
<circle cx="472" cy="394" r="2.1" fill="#5aa6ff"/>
<circle cx="498" cy="394" r="2.1" fill="#5aa6ff"/>
<circle cx="524" cy="394" r="2.1" fill="#5aa6ff"/>
<circle cx="550" cy="394" r="2.1" fill="#5aa6ff"/>
<circle cx="576" cy="394" r="2.1" fill="#5aa6ff"/>
<circle cx="602" cy="394" r="2.1" fill="#5aa6ff"/>
<circle cx="628" cy="394" r="2.1" fill="#5aa6ff"/>
<circle cx="654" cy="394" r="2.1" fill="#5aa6ff"/>
<circle cx="680" cy="394" r="2.1" fill="#5aa6ff"/>
<circle cx="706" cy="394" r="2.1" fill="#5aa6ff"/>
<circle cx="732" cy="394" r="2.1" fill="#5aa6ff"/>
<circle cx="758" cy="394" r="2.1" fill="#5aa6ff"/>
<circle cx="784" cy="394" r="2.1" fill="#5aa6ff"/>
<circle cx="810" cy="394" r="2.1" fill="#5aa6ff"/>
<circle cx="836" cy="394" r="2.1" fill="#5aa6ff"/>
<circle cx="862" cy="394" r="2.1" fill="#5aa6ff"/>
<circle cx="56" cy="420" r="2.1" fill="#5aa6ff"/>
<circle cx="82" cy="420" r="2.1" fill="#5aa6ff"/>
<circle cx="108" cy="420" r="2.1" fill="#5aa6ff"/>
<circle cx="134" cy="420" r="2.1" fill="#5aa6ff"/>
<circle cx="160" cy="420" r="2.1" fill="#5aa6ff"/>
<circle cx="186" cy="420" r="2.1" fill="#5aa6ff"/>
<circle cx="212" cy="420" r="2.1" fill="#5aa6ff"/>
<circle cx="238" cy="420" r="2.1" fill="#5aa6ff"/>
<circle cx="264" cy="420" r="2.1" fill="#5aa6ff"/>
<circle cx="290" cy="420" r="2.1" fill="#5aa6ff"/>
<circle cx="316" cy="420" r="2.1" fill="#5aa6ff"/>
<circle cx="342" cy="420" r="2.1" fill="#5aa6ff"/>
<circle cx="368" cy="420" r="2.1" fill="#5aa6ff"/>
<circle cx="394" cy="420" r="2.1" fill="#5aa6ff"/>
<circle cx="420" cy="420" r="2.1" fill="#5aa6ff"/>
<circle cx="446" cy="420" r="2.1" fill="#5aa6ff"/>
<circle cx="472" cy="420" r="2.1" fill="#5aa6ff"/>
<circle cx="498" cy="420" r="2.1" fill="#5aa6ff"/>
<circle cx="524" cy="420" r="2.1" fill="#5aa6ff"/>
<circle cx="550" cy="420" r="2.1" fill="#5aa6ff"/>
<circle cx="576" cy="420" r="2.1" fill="#5aa6ff"/>
<circle cx="602" cy="420" r="2.1" fill="#5aa6ff"/>
<circle cx="628" cy="420" r="2.1" fill="#5aa6ff"/>
<circle cx="654" cy="420" r="2.1" fill="#5aa6ff"/>
<circle cx="680" cy="420" r="2.1" fill="#5aa6ff"/>
<circle cx="706" cy="420" r="2.1" fill="#5aa6ff"/>
<circle cx="732" cy="420" r="2.1" fill="#5aa6ff"/>
<circle cx="758" cy="420" r="2.1" fill="#5aa6ff"/>
<circle cx="784" cy="420" r="2.1" fill="#5aa6ff"/>
<circle cx="810" cy="420" r="2.1" fill="#5aa6ff"/>
<circle cx="836" cy="420" r="2.1" fill="#5aa6ff"/>
<circle cx="862" cy="420" r="2.1" fill="#5aa6ff"/>
<circle cx="56" cy="446" r="2.1" fill="#5aa6ff"/>
<circle cx="82" cy="446" r="2.1" fill="#5aa6ff"/>
<circle cx="108" cy="446" r="2.1" fill="#5aa6ff"/>
<circle cx="134" cy="446" r="2.1" fill="#5aa6ff"/>
<circle cx="160" cy="446" r="2.1" fill="#5aa6ff"/>
<circle cx="186" cy="446" r="2.1" fill="#5aa6ff"/>
<circle cx="212" cy="446" r="2.1" fill="#5aa6ff"/>
<circle cx="238" cy="446" r="2.1" fill="#5aa6ff"/>
<circle cx="264" cy="446" r="2.1" fill="#5aa6ff"/>
<circle cx="290" cy="446" r="2.1" fill="#5aa6ff"/>
<circle cx="316" cy="446" r="2.1" fill="#5aa6ff"/>
<circle cx="342" cy="446" r="2.1" fill="#5aa6ff"/>
<circle cx="368" cy="446" r="2.1" fill="#5aa6ff"/>
<circle cx="394" cy="446" r="2.1" fill="#5aa6ff"/>
<circle cx="420" cy="446" r="2.1" fill="#5aa6ff"/>
<circle cx="446" cy="446" r="2.1" fill="#5aa6ff"/>
<circle cx="472" cy="446" r="2.1" fill="#5aa6ff"/>
<circle cx="498" cy="446" r="2.1" fill="#5aa6ff"/>
<circle cx="524" cy="446" r="2.1" fill="#5aa6ff"/>
<circle cx="550" cy="446" r="2.1" fill="#5aa6ff"/>
<circle cx="576" cy="446" r="2.1" fill="#5aa6ff"/>
<circle cx="602" cy="446" r="2.1" fill="#5aa6ff"/>
<circle cx="628" cy="446" r="2.1" fill="#5aa6ff"/>
<circle cx="654" cy="446" r="2.1" fill="#5aa6ff"/>
<circle cx="680" cy="446" r="2.1" fill="#5aa6ff"/>
<circle cx="706" cy="446" r="2.1" fill="#5aa6ff"/>
<circle cx="732" cy="446" r="2.1" fill="#5aa6ff"/>
<circle cx="758" cy="446" r="2.1" fill="#5aa6ff"/>
<circle cx="784" cy="446" r="2.1" fill="#5aa6ff"/>
<circle cx="810" cy="446" r="2.1" fill="#5aa6ff"/>
<circle cx="836" cy="446" r="2.1" fill="#5aa6ff"/>
<circle cx="862" cy="446" r="2.1" fill="#5aa6ff"/>
<circle cx="56" cy="472" r="2.1" fill="#5aa6ff"/>
<circle cx="82" cy="472" r="2.1" fill="#5aa6ff"/>
<circle cx="108" cy="472" r="2.1" fill="#5aa6ff"/>
<circle cx="134" cy="472" r="2.1" fill="#5aa6ff"/>
<circle cx="160" cy="472" r="2.1" fill="#5aa6ff"/>
<circle cx="186" cy="472" r="2.1" fill="#5aa6ff"/>
<circle cx="212" cy="472" r="2.1" fill="#5aa6ff"/>
<circle cx="238" cy="472" r="2.1" fill="#5aa6ff"/>
<circle cx="264" cy="472" r="2.1" fill="#5aa6ff"/>
<circle cx="290" cy="472" r="2.1" fill="#5aa6ff"/>
<circle cx="316" cy="472" r="2.1" fill="#5aa6ff"/>
<circle cx="342" cy="472" r="2.1" fill="#5aa6ff"/>
<circle cx="368" cy="472" r="2.1" fill="#5aa6ff"/>
<circle cx="394" cy="472" r="2.1" fill="#5aa6ff"/>
<circle cx="420" cy="472" r="2.1" fill="#5aa6ff"/>
<circle cx="446" cy="472" r="2.1" fill="#5aa6ff"/>
<circle cx="472" cy="472" r="2.1" fill="#5aa6ff"/>
<circle cx="498" cy="472" r="2.1" fill="#5aa6ff"/>
<circle cx="524" cy="472" r="2.1" fill="#5aa6ff"/>
<circle cx="550" cy="472" r="2.1" fill="#5aa6ff"/>
<circle cx="576" cy="472" r="2.1" fill="#5aa6ff"/>
<circle cx="602" cy="472" r="2.1" fill="#5aa6ff"/>
<circle cx="628" cy="472" r="2.1" fill="#5aa6ff"/>
<circle cx="654" cy="472" r="2.1" fill="#5aa6ff"/>
<circle cx="680" cy="472" r="2.1" fill="#5aa6ff"/>
<circle cx="706" cy="472" r="2.1" fill="#5aa6ff"/>
<circle cx="732" cy="472" r="2.1" fill="#5aa6ff"/>
<circle cx="758" cy="472" r="2.1" fill="#5aa6ff"/>
<circle cx="784" cy="472" r="2.1" fill="#5aa6ff"/>
<circle cx="810" cy="472" r="2.1" fill="#5aa6ff"/>
<circle cx="836" cy="472" r="2.1" fill="#5aa6ff"/>
<circle cx="862" cy="472" r="2.1" fill="#5aa6ff"/>
<circle cx="56" cy="498" r="2.1" fill="#5aa6ff"/>
<circle cx="82" cy="498" r="2.1" fill="#5aa6ff"/>
<circle cx="108" cy="498" r="2.1" fill="#5aa6ff"/>
<circle cx="134" cy="498" r="2.1" fill="#5aa6ff"/>
<circle cx="160" cy="498" r="2.1" fill="#5aa6ff"/>
<circle cx="186" cy="498" r="2.1" fill="#5aa6ff"/>
<circle cx="212" cy="498" r="2.1" fill="#5aa6ff"/>
<circle cx="238" cy="498" r="2.1" fill="#5aa6ff"/>
<circle cx="264" cy="498" r="2.1" fill="#5aa6ff"/>
<circle cx="290" cy="498" r="2.1" fill="#5aa6ff"/>
<circle cx="316" cy="498" r="2.1" fill="#5aa6ff"/>
<circle cx="342" cy="498" r="2.1" fill="#5aa6ff"/>
<circle cx="368" cy="498" r="2.1" fill="#5aa6ff"/>
<circle cx="394" cy="498" r="2.1" fill="#5aa6ff"/>
<circle cx="420" cy="498" r="2.1" fill="#5aa6ff"/>
<circle cx="446" cy="498" r="2.1" fill="#5aa6ff"/>
<circle cx="472" cy="498" r="2.1" fill="#5aa6ff"/>
<circle cx="498" cy="498" r="2.1" fill="#5aa6ff"/>
<circle cx="524" cy="498" r="2.1" fill="#5aa6ff"/>
<circle cx="550" cy="498" r="2.1" fill="#5aa6ff"/>
<circle cx="576" cy="498" r="2.1" fill="#5aa6ff"/>
<circle cx="602" cy="498" r="2.1" fill="#5aa6ff"/>
<circle cx="628" cy="498" r="2.1" fill="#5aa6ff"/>
<circle cx="654" cy="498" r="2.1" fill="#5aa6ff"/>
<circle cx="680" cy="498" r="2.1" fill="#5aa6ff"/>
<circle cx="706" cy="498" r="2.1" fill="#5aa6ff"/>
<circle cx="732" cy="498" r="2.1" fill="#5aa6ff"/>
<circle cx="758" cy="498" r="2.1" fill="#5aa6ff"/>
<circle cx="784" cy="498" r="2.1" fill="#5aa6ff"/>
<circle cx="810" cy="498" r="2.1" fill="#5aa6ff"/>
<circle cx="836" cy="498" r="2.1" fill="#5aa6ff"/>
<circle cx="862" cy="498" r="2.1" fill="#5aa6ff"/>
<circle cx="56" cy="524" r="2.1" fill="#5aa6ff"/>
<circle cx="82" cy="524" r="2.1" fill="#5aa6ff"/>
<circle cx="108" cy="524" r="2.1" fill="#5aa6ff"/>
<circle cx="134" cy="524" r="2.1" fill="#5aa6ff"/>
<circle cx="160" cy="524" r="2.1" fill="#5aa6ff"/>
<circle cx="186" cy="524" r="2.1" fill="#5aa6ff"/>
<circle cx="212" cy="524" r="2.1" fill="#5aa6ff"/>
<circle cx="238" cy="524" r="2.1" fill="#5aa6ff"/>
<circle cx="264" cy="524" r="2.1" fill="#5aa6ff"/>
<circle cx="290" cy="524" r="2.1" fill="#5aa6ff"/>
<circle cx="316" cy="524" r="2.1" fill="#5aa6ff"/>
<circle cx="342" cy="524" r="2.1" fill="#5aa6ff"/>
<circle cx="368" cy="524" r="2.1" fill="#5aa6ff"/>
<circle cx="394" cy="524" r="2.1" fill="#5aa6ff"/>
<circle cx="420" cy="524" r="2.1" fill="#5aa6ff"/>
<circle cx="446" cy="524" r="2.1" fill="#5aa6ff"/>
<circle cx="472" cy="524" r="2.1" fill="#5aa6ff"/>
<circle cx="498" cy="524" r="2.1" fill="#5aa6ff"/>
<circle cx="524" cy="524" r="2.1" fill="#5aa6ff"/>
<circle cx="550" cy="524" r="2.1" fill="#5aa6ff"/>
<circle cx="576" cy="524" r="2.1" fill="#5aa6ff"/>
<circle cx="602" cy="524" r="2.1" fill="#5aa6ff"/>
<circle cx="628" cy="524" r="2.1" fill="#5aa6ff"/>
<circle cx="654" cy="524" r="2.1" fill="#5aa6ff"/>
<circle cx="680" cy="524" r="2.1" fill="#5aa6ff"/>
<circle cx="706" cy="524" r="2.1" fill="#5aa6ff"/>
<circle cx="732" cy="524" r="2.1" fill="#5aa6ff"/>
<circle cx="758" cy="524" r="2.1" fill="#5aa6ff"/>
<circle cx="784" cy="524" r="2.1" fill="#5aa6ff"/>
<circle cx="810" cy="524" r="2.1" fill="#5aa6ff"/>
<circle cx="836" cy="524" r="2.1" fill="#5aa6ff"/>
<circle cx="862" cy="524" r="2.1" fill="#5aa6ff"/>
<circle cx="56" cy="550" r="2.1" fill="#5aa6ff"/>
<circle cx="82" cy="550" r="2.1" fill="#5aa6ff"/>
<circle cx="108" cy="550" r="2.1" fill="#5aa6ff"/>
<circle cx="134" cy="550" r="2.1" fill="#5aa6ff"/>
<circle cx="160" cy="550" r="2.1" fill="#5aa6ff"/>
<circle cx="186" cy="550" r="2.1" fill="#5aa6ff"/>
<circle cx="212" cy="550" r="2.1" fill="#5aa6ff"/>
<circle cx="238" cy="550" r="2.1" fill="#5aa6ff"/>
<circle cx="264" cy="550" r="2.1" fill="#5aa6ff"/>
<circle cx="290" cy="550" r="2.1" fill="#5aa6ff"/>
<circle cx="316" cy="550" r="2.1" fill="#5aa6ff"/>
<circle cx="342" cy="550" r="2.1" fill="#5aa6ff"/>
<circle cx="368" cy="550" r="2.1" fill="#5aa6ff"/>
<circle cx="394" cy="550" r="2.1" fill="#5aa6ff"/>
<circle cx="420" cy="550" r="2.1" fill="#5aa6ff"/>
<circle cx="446" cy="550" r="2.1" fill="#5aa6ff"/>
<circle cx="472" cy="550" r="2.1" fill="#5aa6ff"/>
<circle cx="498" cy="550" r="2.1" fill="#5aa6ff"/>
<circle cx="524" cy="550" r="2.1" fill="#5aa6ff"/>
<circle cx="550" cy="550" r="2.1" fill="#5aa6ff"/>
<circle cx="576" cy="550" r="2.1" fill="#5aa6ff"/>
<circle cx="602" cy="550" r="2.1" fill="#5aa6ff"/>
<circle cx="628" cy="550" r="2.1" fill="#5aa6ff"/>
<circle cx="654" cy="550" r="2.1" fill="#5aa6ff"/>
<circle cx="680" cy="550" r="2.1" fill="#5aa6ff"/>
<circle cx="706" cy="550" r="2.1" fill="#5aa6ff"/>
<circle cx="732" cy="550" r="2.1" fill="#5aa6ff"/>
<circle cx="758" cy="550" r="2.1" fill="#5aa6ff"/>
<circle cx="784" cy="550" r="2.1" fill="#5aa6ff"/>
<circle cx="810" cy="550" r="2.1" fill="#5aa6ff"/>
<circle cx="836" cy="550" r="2.1" fill="#5aa6ff"/>
<circle cx="56" cy="576" r="2.1" fill="#5aa6ff"/>
<circle cx="82" cy="576" r="2.1" fill="#5aa6ff"/>
<circle cx="108" cy="576" r="2.1" fill="#5aa6ff"/>
<circle cx="134" cy="576" r="2.1" fill="#5aa6ff"/>
<circle cx="160" cy="576" r="2.1" fill="#5aa6ff"/>
<circle cx="186" cy="576" r="2.1" fill="#5aa6ff"/>
<circle cx="212" cy="576" r="2.1" fill="#5aa6ff"/>
<circle cx="238" cy="576" r="2.1" fill="#5aa6ff"/>
<circle cx="264" cy="576" r="2.1" fill="#5aa6ff"/>
<circle cx="290" cy="576" r="2.1" fill="#5aa6ff"/>
<circle cx="316" cy="576" r="2.1" fill="#5aa6ff"/>
<circle cx="342" cy="576" r="2.1" fill="#5aa6ff"/>
<circle cx="368" cy="576" r="2.1" fill="#5aa6ff"/>
<circle cx="394" cy="576" r="2.1" fill="#5aa6ff"/>
<circle cx="420" cy="576" r="2.1" fill="#5aa6ff"/>
<circle cx="446" cy="576" r="2.1" fill="#5aa6ff"/>
<circle cx="472" cy="576" r="2.1" fill="#5aa6ff"/>
<circle cx="498" cy="576" r="2.1" fill="#5aa6ff"/>
<circle cx="524" cy="576" r="2.1" fill="#5aa6ff"/>
<circle cx="550" cy="576" r="2.1" fill="#5aa6ff"/>
<circle cx="576" cy="576" r="2.1" fill="#5aa6ff"/>
<circle cx="602" cy="576" r="2.1" fill="#5aa6ff"/>
<circle cx="628" cy="576" r="2.1" fill="#5aa6ff"/>
<circle cx="654" cy="576" r="2.1" fill="#5aa6ff"/>
<circle cx="680" cy="576" r="2.1" fill="#5aa6ff"/>
<circle cx="706" cy="576" r="2.1" fill="#5aa6ff"/>
<circle cx="732" cy="576" r="2.1" fill="#5aa6ff"/>
<circle cx="758" cy="576" r="2.1" fill="#5aa6ff"/>
<circle cx="784" cy="576" r="2.1" fill="#5aa6ff"/>
<circle cx="810" cy="576" r="2.1" fill="#5aa6ff"/>
<circle cx="836" cy="576" r="2.1" fill="#5aa6ff"/>
<circle cx="82" cy="602" r="2.1" fill="#5aa6ff"/>
<circle cx="108" cy="602" r="2.1" fill="#5aa6ff"/>
<circle cx="134" cy="602" r="2.1" fill="#5aa6ff"/>
<circle cx="160" cy="602" r="2.1" fill="#5aa6ff"/>
<circle cx="186" cy="602" r="2.1" fill="#5aa6ff"/>
<circle cx="212" cy="602" r="2.1" fill="#5aa6ff"/>
<circle cx="238" cy="602" r="2.1" fill="#5aa6ff"/>
<circle cx="264" cy="602" r="2.1" fill="#5aa6ff"/>
<circle cx="290" cy="602" r="2.1" fill="#5aa6ff"/>
<circle cx="316" cy="602" r="2.1" fill="#5aa6ff"/>
<circle cx="342" cy="602" r="2.1" fill="#5aa6ff"/>
<circle cx="368" cy="602" r="2.1" fill="#5aa6ff"/>
<circle cx="394" cy="602" r="2.1" fill="#5aa6ff"/>
<circle cx="420" cy="602" r="2.1" fill="#5aa6ff"/>
<circle cx="446" cy="602" r="2.1" fill="#5aa6ff"/>
<circle cx="472" cy="602" r="2.1" fill="#5aa6ff"/>
<circle cx="498" cy="602" r="2.1" fill="#5aa6ff"/>
<circle cx="524" cy="602" r="2.1" fill="#5aa6ff"/>
<circle cx="550" cy="602" r="2.1" fill="#5aa6ff"/>
<circle cx="576" cy="602" r="2.1" fill="#5aa6ff"/>
<circle cx="602" cy="602" r="2.1" fill="#5aa6ff"/>
<circle cx="628" cy="602" r="2.1" fill="#5aa6ff"/>
<circle cx="654" cy="602" r="2.1" fill="#5aa6ff"/>
<circle cx="680" cy="602" r="2.1" fill="#5aa6ff"/>
<circle cx="706" cy="602" r="2.1" fill="#5aa6ff"/>
<circle cx="732" cy="602" r="2.1" fill="#5aa6ff"/>
<circle cx="758" cy="602" r="2.1" fill="#5aa6ff"/>
<circle cx="784" cy="602" r="2.1" fill="#5aa6ff"/>
<circle cx="810" cy="602" r="2.1" fill="#5aa6ff"/>
<circle cx="836" cy="602" r="2.1" fill="#5aa6ff"/>
<circle cx="82" cy="628" r="2.1" fill="#5aa6ff"/>
<circle cx="108" cy="628" r="2.1" fill="#5aa6ff"/>
<circle cx="134" cy="628" r="2.1" fill="#5aa6ff"/>
<circle cx="160" cy="628" r="2.1" fill="#5aa6ff"/>
<circle cx="186" cy="628" r="2.1" fill="#5aa6ff"/>
<circle cx="212" cy="628" r="2.1" fill="#5aa6ff"/>
<circle cx="238" cy="628" r="2.1" fill="#5aa6ff"/>
<circle cx="264" cy="628" r="2.1" fill="#5aa6ff"/>
<circle cx="290" cy="628" r="2.1" fill="#5aa6ff"/>
<circle cx="316" cy="628" r="2.1" fill="#5aa6ff"/>
<circle cx="342" cy="628" r="2.1" fill="#5aa6ff"/>
<circle cx="368" cy="628" r="2.1" fill="#5aa6ff"/>
<circle cx="394" cy="628" r="2.1" fill="#5aa6ff"/>
<circle cx="420" cy="628" r="2.1" fill="#5aa6ff"/>
<circle cx="446" cy="628" r="2.1" fill="#5aa6ff"/>
<circle cx="472" cy="628" r="2.1" fill="#5aa6ff"/>
<circle cx="498" cy="628" r="2.1" fill="#5aa6ff"/>
<circle cx="524" cy="628" r="2.1" fill="#5aa6ff"/>
<circle cx="550" cy="628" r="2.1" fill="#5aa6ff"/>
<circle cx="576" cy="628" r="2.1" fill="#5aa6ff"/>
<circle cx="602" cy="628" r="2.1" fill="#5aa6ff"/>
<circle cx="628" cy="628" r="2.1" fill="#5aa6ff"/>
<circle cx="654" cy="628" r="2.1" fill="#5aa6ff"/>
<circle cx="680" cy="628" r="2.1" fill="#5aa6ff"/>
<circle cx="706" cy="628" r="2.1" fill="#5aa6ff"/>
<circle cx="732" cy="628" r="2.1" fill="#5aa6ff"/>
<circle cx="758" cy="628" r="2.1" fill="#5aa6ff"/>
<circle cx="784" cy="628" r="2.1" fill="#5aa6ff"/>
<circle cx="810" cy="628" r="2.1" fill="#5aa6ff"/>
<circle cx="108" cy="654" r="2.1" fill="#5aa6ff"/>
<circle cx="134" cy="654" r="2.1" fill="#5aa6ff"/>
<circle cx="160" cy="654" r="2.1" fill="#5aa6ff"/>
<circle cx="186" cy="654" r="2.1" fill="#5aa6ff"/>
<circle cx="212" cy="654" r="2.1" fill="#5aa6ff"/>
<circle cx="238" cy="654" r="2.1" fill="#5aa6ff"/>
<circle cx="264" cy="654" r="2.1" fill="#5aa6ff"/>
<circle cx="290" cy="654" r="2.1" fill="#5aa6ff"/>
<circle cx="316" cy="654" r="2.1" fill="#5aa6ff"/>
<circle cx="342" cy="654" r="2.1" fill="#5aa6ff"/>
<circle cx="368" cy="654" r="2.1" fill="#5aa6ff"/>
<circle cx="394" cy="654" r="2.1" fill="#5aa6ff"/>
<circle cx="420" cy="654" r="2.1" fill="#5aa6ff"/>
<circle cx="446" cy="654" r="2.1" fill="#5aa6ff"/>
<circle cx="472" cy="654" r="2.1" fill="#5aa6ff"/>
<circle cx="498" cy="654" r="2.1" fill="#5aa6ff"/>
<circle cx="524" cy="654" r="2.1" fill="#5aa6ff"/>
<circle cx="550" cy="654" r="2.1" fill="#5aa6ff"/>
<circle cx="576" cy="654" r="2.1" fill="#5aa6ff"/>
<circle cx="602" cy="654" r="2.1" fill="#5aa6ff"/>
<circle cx="628" cy="654" r="2.1" fill="#5aa6ff"/>
<circle cx="654" cy="654" r="2.1" fill="#5aa6ff"/>
<circle cx="680" cy="654" r="2.1" fill="#5aa6ff"/>
<circle cx="706" cy="654" r="2.1" fill="#5aa6ff"/>
<circle cx="732" cy="654" r="2.1" fill="#5aa6ff"/>
<circle cx="758" cy="654" r="2.1" fill="#5aa6ff"/>
<circle cx="784" cy="654" r="2.1" fill="#5aa6ff"/>
<circle cx="810" cy="654" r="2.1" fill="#5aa6ff"/>
<circle cx="108" cy="680" r="2.1" fill="#5aa6ff"/>
<circle cx="134" cy="680" r="2.1" fill="#5aa6ff"/>
<circle cx="160" cy="680" r="2.1" fill="#5aa6ff"/>
<circle cx="186" cy="680" r="2.1" fill="#5aa6ff"/>
<circle cx="212" cy="680" r="2.1" fill="#5aa6ff"/>
<circle cx="238" cy="680" r="2.1" fill="#5aa6ff"/>
<circle cx="264" cy="680" r="2.1" fill="#5aa6ff"/>
<circle cx="290" cy="680" r="2.1" fill="#5aa6ff"/>
<circle cx="316" cy="680" r="2.1" fill="#5aa6ff"/>
<circle cx="342" cy="680" r="2.1" fill="#5aa6ff"/>
<circle cx="368" cy="680" r="2.1" fill="#5aa6ff"/>
<circle cx="394" cy="680" r="2.1" fill="#5aa6ff"/>
<circle cx="420" cy="680" r="2.1" fill="#5aa6ff"/>
<circle cx="446" cy="680" r="2.1" fill="#5aa6ff"/>
<circle cx="472" cy="680" r="2.1" fill="#5aa6ff"/>
<circle cx="498" cy="680" r="2.1" fill="#5aa6ff"/>
<circle cx="524" cy="680" r="2.1" fill="#5aa6ff"/>
<circle cx="550" cy="680" r="2.1" fill="#5aa6ff"/>
<circle cx="576" cy="680" r="2.1" fill="#5aa6ff"/>
<circle cx="602" cy="680" r="2.1" fill="#5aa6ff"/>
<circle cx="628" cy="680" r="2.1" fill="#5aa6ff"/>
<circle cx="654" cy="680" r="2.1" fill="#5aa6ff"/>
<circle cx="680" cy="680" r="2.1" fill="#5aa6ff"/>
<circle cx="706" cy="680" r="2.1" fill="#5aa6ff"/>
<circle cx="732" cy="680" r="2.1" fill="#5aa6ff"/>
<circle cx="758" cy="680" r="2.1" fill="#5aa6ff"/>
<circle cx="784" cy="680" r="2.1" fill="#5aa6ff"/>
<circle cx="134" cy="706" r="2.1" fill="#5aa6ff"/>
<circle cx="160" cy="706" r="2.1" fill="#5aa6ff"/>
<circle cx="186" cy="706" r="2.1" fill="#5aa6ff"/>
<circle cx="212" cy="706" r="2.1" fill="#5aa6ff"/>
<circle cx="238" cy="706" r="2.1" fill="#5aa6ff"/>
<circle cx="264" cy="706" r="2.1" fill="#5aa6ff"/>
<circle cx="290" cy="706" r="2.1" fill="#5aa6ff"/>
<circle cx="316" cy="706" r="2.1" fill="#5aa6ff"/>
<circle cx="342" cy="706" r="2.1" fill="#5aa6ff"/>
<circle cx="368" cy="706" r="2.1" fill="#5aa6ff"/>
<circle cx="394" cy="706" r="2.1" fill="#5aa6ff"/>
<circle cx="420" cy="706" r="2.1" fill="#5aa6ff"/>
<circle cx="446" cy="706" r="2.1" fill="#5aa6ff"/>
<circle cx="472" cy="706" r="2.1" fill="#5aa6ff"/>
<circle cx="498" cy="706" r="2.1" fill="#5aa6ff"/>
<circle cx="524" cy="706" r="2.1" fill="#5aa6ff"/>
<circle cx="550" cy="706" r="2.1" fill="#5aa6ff"/>
<circle cx="576" cy="706" r="2.1" fill="#5aa6ff"/>
<circle cx="602" cy="706" r="2.1" fill="#5aa6ff"/>
<circle cx="628" cy="706" r="2.1" fill="#5aa6ff"/>
<circle cx="654" cy="706" r="2.1" fill="#5aa6ff"/>
<circle cx="680" cy="706" r="2.1" fill="#5aa6ff"/>
<circle cx="706" cy="706" r="2.1" fill="#5aa6ff"/>
<circle cx="732" cy="706" r="2.1" fill="#5aa6ff"/>
<circle cx="758" cy="706" r="2.1" fill="#5aa6ff"/>
<circle cx="160" cy="732" r="2.1" fill="#5aa6ff"/>
<circle cx="186" cy="732" r="2.1" fill="#5aa6ff"/>
<circle cx="212" cy="732" r="2.1" fill="#5aa6ff"/>
<circle cx="238" cy="732" r="2.1" fill="#5aa6ff"/>
<circle cx="264" cy="732" r="2.1" fill="#5aa6ff"/>
<circle cx="290" cy="732" r="2.1" fill="#5aa6ff"/>
<circle cx="316" cy="732" r="2.1" fill="#5aa6ff"/>
<circle cx="342" cy="732" r="2.1" fill="#5aa6ff"/>
<circle cx="368" cy="732" r="2.1" fill="#5aa6ff"/>
<circle cx="394" cy="732" r="2.1" fill="#5aa6ff"/>
<circle cx="420" cy="732" r="2.1" fill="#5aa6ff"/>
<circle cx="446" cy="732" r="2.1" fill="#5aa6ff"/>
<circle cx="472" cy="732" r="2.1" fill="#5aa6ff"/>
<circle cx="498" cy="732" r="2.1" fill="#5aa6ff"/>
<circle cx="524" cy="732" r="2.1" fill="#5aa6ff"/>
<circle cx="550" cy="732" r="2.1" fill="#5aa6ff"/>
<circle cx="576" cy="732" r="2.1" fill="#5aa6ff"/>
<circle cx="602" cy="732" r="2.1" fill="#5aa6ff"/>
<circle cx="628" cy="732" r="2.1" fill="#5aa6ff"/>
<circle cx="654" cy="732" r="2.1" fill="#5aa6ff"/>
<circle cx="680" cy="732" r="2.1" fill="#5aa6ff"/>
<circle cx="706" cy="732" r="2.1" fill="#5aa6ff"/>
<circle cx="732" cy="732" r="2.1" fill="#5aa6ff"/>
<circle cx="758" cy="732" r="2.1" fill="#5aa6ff"/>
<circle cx="186" cy="758" r="2.1" fill="#5aa6ff"/>
<circle cx="212" cy="758" r="2.1" fill="#5aa6ff"/>
<circle cx="238" cy="758" r="2.1" fill="#5aa6ff"/>
<circle cx="264" cy="758" r="2.1" fill="#5aa6ff"/>
<circle cx="290" cy="758" r="2.1" fill="#5aa6ff"/>
<circle cx="316" cy="758" r="2.1" fill="#5aa6ff"/>
<circle cx="342" cy="758" r="2.1" fill="#5aa6ff"/>
<circle cx="368" cy="758" r="2.1" fill="#5aa6ff"/>
<circle cx="394" cy="758" r="2.1" fill="#5aa6ff"/>
<circle cx="420" cy="758" r="2.1" fill="#5aa6ff"/>
<circle cx="446" cy="758" r="2.1" fill="#5aa6ff"/>
<circle cx="472" cy="758" r="2.1" fill="#5aa6ff"/>
<circle cx="498" cy="758" r="2.1" fill="#5aa6ff"/>
<circle cx="524" cy="758" r="2.1" fill="#5aa6ff"/>
<circle cx="550" cy="758" r="2.1" fill="#5aa6ff"/>
<circle cx="576" cy="758" r="2.1" fill="#5aa6ff"/>
<circle cx="602" cy="758" r="2.1" fill="#5aa6ff"/>
<circle cx="628" cy="758" r="2.1" fill="#5aa6ff"/>
<circle cx="654" cy="758" r="2.1" fill="#5aa6ff"/>
<circle cx="680" cy="758" r="2.1" fill="#5aa6ff"/>
<circle cx="706" cy="758" r="2.1" fill="#5aa6ff"/>
<circle cx="732" cy="758" r="2.1" fill="#5aa6ff"/>
<circle cx="212" cy="784" r="2.1" fill="#5aa6ff"/>
<circle cx="238" cy="784" r="2.1" fill="#5aa6ff"/>
<circle cx="264" cy="784" r="2.1" fill="#5aa6ff"/>
<circle cx="290" cy="784" r="2.1" fill="#5aa6ff"/>
<circle cx="316" cy="784" r="2.1" fill="#5aa6ff"/>
<circle cx="342" cy="784" r="2.1" fill="#5aa6ff"/>
<circle cx="368" cy="784" r="2.1" fill="#5aa6ff"/>
<circle cx="394" cy="784" r="2.1" fill="#5aa6ff"/>
<circle cx="420" cy="784" r="2.1" fill="#5aa6ff"/>
<circle cx="446" cy="784" r="2.1" fill="#5aa6ff"/>
<circle cx="472" cy="784" r="2.1" fill="#5aa6ff"/>
<circle cx="498" cy="784" r="2.1" fill="#5aa6ff"/>
<circle cx="524" cy="784" r="2.1" fill="#5aa6ff"/>
<circle cx="550" cy="784" r="2.1" fill="#5aa6ff"/>
<circle cx="576" cy="784" r="2.1" fill="#5aa6ff"/>
<circle cx="602" cy="784" r="2.1" fill="#5aa6ff"/>
<circle cx="628" cy="784" r="2.1" fill="#5aa6ff"/>
<circle cx="654" cy="784" r="2.1" fill="#5aa6ff"/>
<circle cx="680" cy="784" r="2.1" fill="#5aa6ff"/>
<circle cx="238" cy="810" r="2.1" fill="#5aa6ff"/>
<circle cx="264" cy="810" r="2.1" fill="#5aa6ff"/>
<circle cx="290" cy="810" r="2.1" fill="#5aa6ff"/>
<circle cx="316" cy="810" r="2.1" fill="#5aa6ff"/>
<circle cx="342" cy="810" r="2.1" fill="#5aa6ff"/>
<circle cx="368" cy="810" r="2.1" fill="#5aa6ff"/>
<circle cx="394" cy="810" r="2.1" fill="#5aa6ff"/>
<circle cx="420" cy="810" r="2.1" fill="#5aa6ff"/>
<circle cx="446" cy="810" r="2.1" fill="#5aa6ff"/>
<circle cx="472" cy="810" r="2.1" fill="#5aa6ff"/>
<circle cx="498" cy="810" r="2.1" fill="#5aa6ff"/>
<circle cx="524" cy="810" r="2.1" fill="#5aa6ff"/>
<circle cx="550" cy="810" r="2.1" fill="#5aa6ff"/>
<circle cx="576" cy="810" r="2.1" fill="#5aa6ff"/>
<circle cx="602" cy="810" r="2.1" fill="#5aa6ff"/>
<circle cx="628" cy="810" r="2.1" fill="#5aa6ff"/>
<circle cx="654" cy="810" r="2.1" fill="#5aa6ff"/>
<circle cx="290" cy="836" r="2.1" fill="#5aa6ff"/>
<circle cx="316" cy="836" r="2.1" fill="#5aa6ff"/>
<circle cx="342" cy="836" r="2.1" fill="#5aa6ff"/>
<circle cx="368" cy="836" r="2.1" fill="#5aa6ff"/>
<circle cx="394" cy="836" r="2.1" fill="#5aa6ff"/>
<circle cx="420" cy="836" r="2.1" fill="#5aa6ff"/>
<circle cx="446" cy="836" r="2.1" fill="#5aa6ff"/>
<circle cx="472" cy="836" r="2.1" fill="#5aa6ff"/>
<circle cx="498" cy="836" r="2.1" fill="#5aa6ff"/>
<circle cx="524" cy="836" r="2.1" fill="#5aa6ff"/>
<circle cx="550" cy="836" r="2.1" fill="#5aa6ff"/>
<circle cx="576" cy="836" r="2.1" fill="#5aa6ff"/>
<circle cx="602" cy="836" r="2.1" fill="#5aa6ff"/>
<circle cx="394" cy="862" r="2.1" fill="#5aa6ff"/>
<circle cx="420" cy="862" r="2.1" fill="#5aa6ff"/>
<circle cx="446" cy="862" r="2.1" fill="#5aa6ff"/>
<circle cx="472" cy="862" r="2.1" fill="#5aa6ff"/>
<circle cx="498" cy="862" r="2.1" fill="#5aa6ff"/>
<circle cx="524" cy="862" r="2.1" fill="#5aa6ff"/>
<g fill="none" stroke="#5aa6ff" stroke-width="1.3" opacity="0.6">
<circle cx="450" cy="450" r="420"/>
<ellipse cx="450" cy="450" rx="420" ry="140"/>
<ellipse cx="450" cy="450" rx="420" ry="280"/>
<ellipse cx="450" cy="450" rx="140" ry="420"/>
<ellipse cx="450" cy="450" rx="280" ry="420"/>
<line x1="30" y1="450" x2="870" y2="450"/>
</g></svg>